<?xml version="1.0" standalone="no"?>
<!DOCTYPE svg PUBLIC "-//W3C//DTD SVG 20010904//EN"
 "http://www.w3.org/TR/2001/REC-SVG-20010904/DTD/svg10.dtd">
<svg version="1.0" xmlns="http://www.w3.org/2000/svg"
 width="192.000000pt" height="192.000000pt" viewBox="0 0 192.000000 192.000000"
 preserveAspectRatio="xMidYMid meet">

<g transform="translate(0.000000,192.000000) scale(0.100000,-0.100000)"
fill="#000000" stroke="none">
<path d="M813 1825 c-586 -106 -901 -729 -637 -1261 191 -387 655 -578 1064
-439 276 94 492 323 570 605 61 218 23 486 -97 683 -186 307 -553 475 -900
412z m182 -182 c10 -3 26 -24 36 -47 18 -40 20 -42 186 -108 l167 -68 21 20
c32 30 88 27 114 -6 24 -31 26 -49 7 -83 -12 -21 -10 -32 21 -98 19 -41 44
-112 56 -159 12 -46 27 -84 33 -84 24 0 54 -41 54 -75 0 -34 -30 -75 -55 -75
-7 0 -24 -37 -39 -82 -16 -46 -41 -107 -56 -136 -28 -52 -28 -55 -13 -87 21
-44 5 -88 -39 -106 -42 -17 -82 6 -104 59 -5 11 -105 -28 -132 -50 -39 -33
-99 -65 -166 -88 -39 -13 -52 -22 -57 -44 -12 -42 -28 -56 -69 -56 -41 0 -65
19 -75 62 -5 19 -15 28 -38 32 -41 8 -137 57 -185 94 -20 15 -56 34 -78 40
-52 15 -54 15 -54 -2 0 -8 -12 -24 -27 -36 -29 -22 -72 -22 -99 1 -21 17 -27
66 -12 96 13 26 11 35 -28 118 -24 50 -48 111 -54 137 -9 36 -17 48 -37 53
-58 14 -60 117 -2 138 22 9 29 19 35 51 8 50 49 165 79 226 20 40 21 48 9 65
-20 27 -17 58 7 89 26 33 82 36 114 6 l21 -20 169 69 c152 61 170 71 176 95
15 56 61 80 114 59z"/>
<path d="M719 1461 c-91 -37 -171 -71 -178 -76 -9 -5 -11 -19 -6 -42 6 -35 6
-35 -24 -28 -27 6 -31 4 -31 -14 0 -12 5 -21 11 -21 6 0 8 -9 4 -21 -4 -11 -4
-36 0 -56 5 -29 9 -32 21 -23 11 10 14 10 14 1 0 -21 -20 -51 -58 -85 -31 -29
-36 -40 -37 -77 0 -48 -25 -70 -25 -22 l-1 28 -20 -24 c-28 -34 -20 -45 36
-51 68 -7 72 -30 6 -30 -61 0 -73 -16 -42 -56 l21 -27 0 27 c0 48 25 23 30
-30 4 -42 10 -52 37 -69 31 -19 53 -59 39 -72 -3 -4 -19 6 -36 22 l-29 28 15
-49 c8 -27 13 -59 11 -71 -6 -34 14 -34 50 -1 44 43 64 31 24 -14 -30 -35 -34
-68 -7 -68 6 0 22 -3 36 -7 22 -6 23 -5 12 9 -10 13 -10 18 -1 24 8 4 18 -1
27 -14 9 -14 25 -22 41 -22 15 0 36 -7 47 -15 18 -14 18 -14 -9 -15 -17 0 -26
-4 -22 -10 20 -32 208 -119 219 -101 3 5 -3 16 -14 26 -21 19 -27 45 -11 45 5
0 16 -11 25 -25 21 -32 34 -32 46 0 11 29 30 33 30 6 0 -31 29 -34 54 -4 29
33 44 15 16 -19 -11 -14 -17 -28 -14 -31 13 -12 157 53 204 92 l25 20 -30 1
c-29 1 -29 1 -11 15 11 8 31 15 46 15 14 0 30 8 38 20 16 26 36 26 29 0 -6
-23 1 -24 37 -10 33 12 33 30 1 68 -14 17 -25 33 -25 36 0 15 27 3 57 -26 35
-34 37 -33 47 37 3 22 8 51 12 65 7 25 7 25 -16 -3 -15 -18 -26 -25 -32 -19
-16 16 1 50 37 72 30 18 34 27 37 67 3 48 28 75 28 31 l1 -23 19 23 c29 35 16
52 -41 52 -27 0 -49 5 -49 10 0 11 9 13 61 10 45 -2 57 21 32 59 l-18 26 -3
-28 c-5 -44 -27 -26 -30 26 -3 38 -9 51 -37 75 -46 41 -72 91 -41 79 18 -7 29
35 21 74 -4 18 -2 29 4 29 6 0 11 9 11 21 0 18 -4 20 -31 14 -30 -7 -30 -7
-24 28 6 30 4 37 -16 48 -48 25 -343 139 -348 134 -3 -3 14 -25 37 -48 37 -37
49 -42 100 -47 52 -6 54 -7 27 -15 -16 -4 -35 -15 -41 -23 -9 -12 -15 -12 -42
2 -17 9 -41 16 -54 16 -13 0 -30 5 -38 10 -12 8 -9 10 13 10 34 0 34 7 0 42
-38 39 -51 36 -55 -14 -2 -24 -7 -43 -13 -43 -5 0 -11 19 -13 43 -4 49 -14 52
-47 15 -31 -36 -31 -43 3 -43 21 0 24 -2 12 -10 -8 -5 -25 -10 -38 -10 -13 0
-37 -7 -54 -16 -27 -14 -33 -14 -42 -2 -6 8 -27 19 -46 25 -34 11 -33 11 26
12 58 1 62 3 102 45 41 44 49 57 35 55 -5 0 -83 -31 -174 -68z m30 -124 c33
-22 40 -23 63 -11 35 18 140 34 185 28 21 -3 59 -13 85 -22 46 -15 48 -15 96
11 59 32 91 34 123 8 21 -17 24 -28 26 -103 1 -68 7 -94 30 -143 25 -54 28
-70 28 -170 0 -103 -2 -114 -32 -177 -82 -175 -274 -278 -456 -248 -287 49
-452 350 -331 606 19 41 23 61 18 93 -8 53 2 103 28 136 18 24 26 26 60 22 22
-3 56 -16 77 -30z"/>
<path d="M669 1132 c-80 -71 9 -201 104 -150 48 25 65 74 42 122 -29 60 -95
73 -146 28z m56 -42 c0 -18 -6 -26 -23 -28 -24 -4 -38 18 -28 44 3 9 15 14 28
12 17 -2 23 -10 23 -28z"/>
<path d="M1127 1140 c-51 -40 -43 -126 14 -155 43 -23 77 -18 110 14 83 83
-32 213 -124 141z m58 -30 c12 -20 -6 -50 -31 -50 -18 0 -24 5 -24 23 0 13 3
27 7 30 10 10 41 8 48 -3z"/>
<path d="M870 971 c0 -39 39 -68 70 -51 14 8 26 8 40 0 17 -9 25 -6 46 15 25
25 25 45 -1 45 -7 0 -15 -7 -19 -15 -5 -13 -9 -13 -26 -3 -16 10 -24 10 -42
-1 -18 -11 -22 -11 -30 3 -10 17 -38 22 -38 7z"/>
<path d="M406 1250 c-56 -125 -85 -233 -66 -245 17 -10 41 29 77 125 31 81 45
180 24 180 -4 0 -20 -27 -35 -60z"/>
<path d="M1470 1263 c0 -50 50 -197 82 -242 23 -33 40 -18 32 27 -14 78 -89
262 -105 262 -5 0 -9 -21 -9 -47z"/>
<path d="M461 1156 c-6 -16 -14 -34 -18 -40 -3 -6 4 -1 17 10 13 13 20 29 18
40 -4 16 -7 14 -17 -10z"/>
<path d="M1440 1157 c0 -8 9 -22 20 -32 20 -18 20 -18 9 13 -11 32 -29 43 -29
19z"/>
<path d="M336 862 c-3 -5 0 -26 5 -48 15 -54 90 -214 100 -214 27 0 -20 158
-66 229 -30 44 -31 45 -39 33z"/>
<path d="M1537 829 c-46 -66 -87 -229 -58 -229 18 0 116 243 105 261 -9 16
-18 9 -47 -32z"/>
</g>
</svg>
